<svg width="70" height="80" viewBox="0 0 70 80" fill="none" xmlns="http://www.w3.org/2000/svg">
<path d="M6.3706 71.4488L0 0H70L63.6209 71.4374L34.9575 79.3844L6.3706 71.4488Z" fill="#E44F26"/>
<path d="M35 73.3115L58.1632 66.8899L63.6124 5.84326H35V73.3115Z" fill="#F1662A"/>
<path d="M35 32.3406H23.4042L22.6047 23.3673H35V14.6039H34.9688H13.0276L13.2374 16.9571L15.3892 41.1041H35V32.3406Z" fill="#EBEBEB"/>
<path d="M35 55.0985L34.9603 55.1098L25.2017 52.476L24.578 45.4873H19.8348H15.7805L17.0081 59.2435L34.9603 64.2277L35 64.2163V55.0985Z" fill="#EBEBEB"/>
<path d="M34.9688 32.3406V41.104H45.7594L44.7444 52.4702L34.9688 55.1069V64.2247L52.9352 59.2434L53.0656 57.7634L55.1239 34.6938L55.3394 32.3406H52.9777H34.9688Z" fill="white"/>
<path d="M34.9688 14.6039V20.0474V23.3475V23.3673H56.1077H56.1361L56.3119 21.3998L56.7116 16.9571L56.9214 14.6039H34.9688Z" fill="white"/>
</svg>
