<svg width="81" height="81" viewBox="0 0 81 81" fill="none" xmlns="http://www.w3.org/2000/svg">
<path d="M80.8125 0.8125H0.8125V80.8125H80.8125V0.8125Z" fill="#F5DE19"/>
<path d="M54.5525 63.3126C55.2341 64.6971 56.2931 65.8609 57.6075 66.6697C58.9218 67.4785 60.4379 67.8994 61.9811 67.884C65.0954 67.884 67.0868 66.3268 67.0868 64.1697C67.0868 61.5983 65.0411 60.6783 61.6125 59.1783L59.7325 58.3726C54.3039 56.0611 50.7039 53.1668 50.7039 47.0468C50.7039 41.4097 54.9896 37.1154 61.7125 37.1154C63.8888 36.9583 66.0632 37.4453 67.9645 38.5159C69.8658 39.5864 71.4098 41.1931 72.4039 43.1354L66.5268 46.8926C66.144 45.9295 65.4775 45.1055 64.6156 44.5299C63.7538 43.9543 62.7373 43.6543 61.7011 43.6697C61.249 43.6244 60.7924 43.6739 60.3604 43.8148C59.9285 43.9557 59.5306 44.1851 59.1922 44.4883C58.8538 44.7915 58.5822 45.1619 58.3949 45.5758C58.2075 45.9898 58.1084 46.4382 58.1039 46.8926C58.1039 49.1468 59.5011 50.0611 62.7268 51.464L64.6068 52.2697C70.9954 55.0097 74.6068 57.8011 74.6068 64.0783C74.6068 70.8468 69.2896 74.5554 62.1496 74.5554C59.3677 74.7327 56.5938 74.101 54.1628 72.7368C51.7319 71.3725 49.7477 69.3338 48.4496 66.8668L54.5525 63.3126ZM27.9954 63.964C29.1754 66.0583 30.2496 67.8297 32.8325 67.8297C35.3011 67.8297 36.8611 66.864 36.8611 63.1068V37.544H44.3782V63.2068C44.3782 70.9897 39.8068 74.5326 33.1525 74.5326C30.8004 74.6611 28.4644 74.0749 26.4516 72.8511C24.4388 71.6272 22.8435 69.8229 21.8754 67.6754L27.9954 63.964Z" fill="black"/>
</svg>
