<svg width="518" height="365" viewBox="0 0 518 365" fill="none" xmlns="http://www.w3.org/2000/svg">
<g clip-path="url(#clip0_6_5)">
<path d="M258.235 168.044C267.35 168.044 274.74 160.648 274.74 151.525C274.74 142.402 267.35 135.007 258.235 135.007C249.12 135.007 241.73 142.402 241.73 151.525C241.73 160.648 249.12 168.044 258.235 168.044Z" fill="#2185D5"/>
<path d="M82.6904 353.165L91.8996 353.164L96.2804 317.614L82.6885 317.615L82.6904 353.165Z" fill="#FFB6B6"/>
<path d="M82.3662 362.78L110.685 362.779V362.42C110.685 359.495 109.524 356.689 107.457 354.62C105.389 352.551 102.586 351.389 99.6627 351.389H99.662L94.4892 347.461L84.8378 351.389L82.3657 351.39L82.3662 362.78Z" fill="#3A4750"/>
<path d="M42.5187 353.165L51.7278 353.164L56.1086 317.614L42.5168 317.615L42.5187 353.165Z" fill="#FFB6B6"/>
<path d="M42.1947 362.78L70.5137 362.779V362.42C70.5135 359.495 69.3522 356.689 67.2851 354.62C65.218 352.551 62.4145 351.389 59.4912 351.389H59.4905L54.3177 347.461L44.6663 351.389L42.1942 351.39L42.1947 362.78Z" fill="#3A4750"/>
<path d="M105.62 159.462C105.62 159.462 114.48 186.698 112.845 190.282C111.209 193.867 108.419 191.074 111.209 193.867C114 196.66 116.436 193.691 113.823 198.433C111.209 203.176 107.251 242.216 105.51 244.106C103.769 245.996 101.375 246.046 103.502 247.883C105.629 249.719 108.419 245.996 105.629 249.719C102.839 253.443 95.4343 339.339 95.4343 339.339H80.97C80.97 339.339 77.3675 335.183 79.4067 332.479C81.446 329.774 79.2277 328.732 79.4067 326.926C79.5858 325.12 78.9075 321.226 78.7816 319.45C78.6557 317.673 76.2112 275.347 82.084 250.897L71.3751 204.342L58.4029 260.61C58.4029 260.61 64.3701 307.807 58.4029 322.98C58.4029 322.98 63.2138 326.989 61.0802 329.312C58.9466 331.636 57.0863 329.774 58.9466 331.636C60.8068 333.498 56.1563 340.014 56.1563 340.014L40.3444 339.083L31.3948 250.897C31.3948 250.897 29.8861 241.701 31.3948 240.125C32.9035 238.549 32.9035 244.134 32.9035 238.549V231.102C32.9035 231.102 33.7774 185.299 33.8939 182.601C34.0104 179.904 45.1717 160.356 45.1717 160.356L105.62 159.462Z" fill="#3A4750"/>
<path d="M105.488 65.3941V119.098C103.756 124.298 102.862 129.741 102.841 135.223C102.898 144.352 104.904 154.873 104.898 159.473C104.924 160.083 104.858 160.694 104.701 161.284C95.8199 187.046 48.8252 163.635 44.553 161.443C44.3499 161.341 44.242 161.284 44.242 161.284L45.1688 132.427L45.0101 124.13L43.9119 67.2111L44.8958 66.4233L53.5165 59.5427L54.3608 58.8693L56.9508 62.6495L80.0387 61.0612L88.8498 58.6215L91.5985 59.7397L103.99 64.7842L105.488 65.3941Z" fill="#2185D5"/>
<path d="M185.953 107.596L169.773 102.242L165.428 111.066L182.735 116.117C183.301 117.015 184.106 117.738 185.059 118.204C186.013 118.67 187.078 118.86 188.133 118.754C189.189 118.647 190.195 118.248 191.036 117.601C191.878 116.954 192.522 116.085 192.898 115.092C193.273 114.098 193.364 113.02 193.16 111.977C192.956 110.935 192.466 109.97 191.744 109.191C191.023 108.413 190.099 107.851 189.075 107.569C188.052 107.287 186.971 107.296 185.953 107.596Z" fill="#FFB6B6"/>
<path d="M89.8154 60.1703L89.7484 60.4383C88.4841 65.5003 86.8699 79.9589 90.3288 83.863C94.7706 88.8827 130.65 104.207 137.777 102.958C143.306 101.99 142.167 102.315 144.812 105.069C147.457 107.823 143.067 108.466 148.967 108.948C154.867 109.43 154.985 107.169 156.249 109.677C157.512 112.184 156.388 113.695 160.403 113.556C164.419 113.416 165.425 114.166 166.807 114.413C168.188 114.659 176.861 118.774 176.861 118.774C176.861 118.774 180.341 108.839 184.72 105.056C184.72 105.056 174.676 103.835 173.916 101.703C173.155 99.57 173.776 97.6839 171.142 98.0698C168.508 98.4558 167.138 101.349 167.502 97.7057C167.865 94.062 148.891 86.9688 148.891 86.9688C137.44 75.6853 113.913 67.8463 89.8154 60.1703Z" fill="#2185D5"/>
<path d="M38.4821 172.333L37.7482 155.294L27.964 154.355L29.3804 172.342C28.7414 173.19 28.3514 174.2 28.2542 175.257C28.1571 176.315 28.3566 177.379 28.8305 178.329C29.3043 179.279 30.0336 180.079 30.9364 180.637C31.8392 181.195 32.8796 181.49 33.9409 181.489C35.0021 181.488 36.042 181.191 36.9436 180.631C37.8452 180.07 38.5728 179.27 39.0446 178.318C39.5164 177.367 39.7137 176.303 39.6144 175.245C39.515 174.188 39.1229 173.179 38.4821 172.333Z" fill="#FFB6B6"/>
<path d="M48.7097 65.5529L48.4355 65.5852C45.8852 65.8863 43.4466 66.805 41.331 68.2618C39.2153 69.7185 37.4863 71.6694 36.2937 73.9456C33.1785 79.8818 23.3232 120.088 25.7363 125.605C27.9867 130.751 27.8936 129.486 26.2582 132.937C24.6229 136.389 22.4656 132.508 24.1069 138.2C25.7483 143.893 27.9026 143.201 26.0078 145.273C24.113 147.344 22.3026 146.828 23.8564 150.536C25.4103 154.244 25.0663 155.452 25.3258 156.832C25.5853 158.212 24.8158 167.787 24.8158 167.787C24.8158 167.787 35.3308 167.522 40.4178 170.279C40.4178 170.279 37.9981 160.447 39.7209 158.979C41.4437 157.511 43.4261 157.424 42.1317 155.096C40.8373 152.768 37.6481 152.511 41.1813 151.56C44.7144 150.608 44.6149 130.337 44.6149 130.337L48.7097 65.5529Z" fill="#2185D5"/>
<path d="M73.9191 43.8375C73.5065 43.9328 73.0938 44.0154 72.6812 44.0789C71.4207 44.2861 70.1411 44.3521 68.866 44.2758C65.5446 44.0974 62.3375 43.0016 59.6004 41.1102C56.8632 39.2188 54.703 36.6055 53.3594 33.5603C52.0157 30.5151 51.5411 27.1569 51.9881 23.8582C52.4351 20.5595 53.7863 17.4492 55.8919 14.8721C57.9974 12.2951 60.7751 10.3521 63.9167 9.25863C67.0583 8.16515 70.4412 7.96392 73.6901 8.67725C76.939 9.39059 79.9271 10.9906 82.3228 13.2999C84.7186 15.6091 86.4284 18.5374 87.2627 21.7599C87.3008 21.906 87.3389 22.0458 87.3706 22.1919C88.4538 26.8475 87.6452 31.743 85.1227 35.802C82.6002 39.8611 78.5704 42.7514 73.9191 43.8375Z" fill="#FFB6B6"/>
<path d="M57.2986 41.7106C54.7939 39.7489 54.5508 36.0095 52.4135 33.6524C48.8399 29.7113 47.1609 25.4713 49.0329 20.8014C50.6886 16.6711 50.3367 11.594 53.9027 8.93532C52.1513 8.3008 51.7391 6.98309 53.2845 6.95875C54.3266 6.94235 58.2115 8.93569 56.3422 6.45252C54.4728 3.96935 58.0113 4.94951 57.7773 3.93306C57.5432 2.91662 56.0424 2.35364 55.3805 3.15936C57.4938 0.681204 62.1087 1.20954 63.6082 4.1013C65.7145 0.942002 67.9503 -1.23189 71.1733 0.772993C74.3389 2.74209 74.2975 5.17618 77.7017 4.5912C79.302 4.31621 79.4532 7.34216 80.5464 8.54368C81.6397 9.74521 83.2378 10.6751 84.8333 10.3734C86.4288 10.0716 87.6488 8.08162 86.7548 6.72506L90.5152 15.311L92.0308 13.4505C94.4389 15.0212 93.648 19.1198 91.2239 20.6658C88.7999 22.2118 84.1736 18.6385 82.8582 21.1962C80.7845 25.2281 75.9199 23.1921 72.5791 20.3428C68.5279 16.8873 63.638 27.3939 65.5895 32.3498C63.5646 30.3598 59.8188 32.0112 58.7698 34.6503C57.7209 37.2893 58.4901 40.2626 59.2676 42.9941L57.2986 41.7106Z" fill="#3A4750"/>
<path d="M307.512 101.034H288.457C287.962 101.033 287.488 100.837 287.139 100.487C286.789 100.137 286.592 99.6624 286.592 99.1676V80.3292C286.592 79.8344 286.789 79.3599 287.139 79.01C287.488 78.6601 287.962 78.4633 288.457 78.4627H307.512C308.007 78.4633 308.481 78.6601 308.83 79.01C309.18 79.3599 309.376 79.8344 309.377 80.3292V99.1676C309.376 99.6624 309.18 100.137 308.83 100.487C308.481 100.837 308.007 101.033 307.512 101.034Z" fill="#F2F2F2"/>
<path d="M310.685 102.622H291.629C291.135 102.621 290.661 102.424 290.311 102.074C289.961 101.724 289.765 101.25 289.764 100.755V81.9167C289.765 81.4219 289.961 80.9475 290.311 80.5975C290.661 80.2476 291.135 80.0508 291.629 80.0503H310.685C311.179 80.0508 311.653 80.2476 312.003 80.5975C312.352 80.9475 312.549 81.4219 312.549 81.9167V100.755C312.549 101.25 312.352 101.724 312.003 102.074C311.653 102.424 311.179 102.621 310.685 102.622Z" fill="#F2F2F2"/>
<path d="M288.856 79.0189C288.403 79.0189 287.968 79.199 287.648 79.5197C287.327 79.8404 287.147 80.2754 287.147 80.7289V98.7679C287.147 99.2214 287.327 99.6564 287.648 99.9771C287.968 100.298 288.403 100.478 288.856 100.478H300.508C302.713 100.478 304.827 99.6013 306.386 98.041C307.945 96.4807 308.821 94.3644 308.821 92.1577V80.7289C308.821 80.2754 308.641 79.8404 308.321 79.5197C308 79.199 307.566 79.0189 307.113 79.0189H288.856Z" fill="white"/>
<path d="M303.088 84.4934H292.841C292.747 84.4934 292.657 84.456 292.59 84.3895C292.524 84.3229 292.486 84.2327 292.486 84.1386C292.486 84.0444 292.524 83.9542 292.59 83.8876C292.657 83.8211 292.747 83.7837 292.841 83.7837H303.088C303.182 83.7837 303.272 83.8211 303.339 83.8876C303.405 83.9542 303.443 84.0444 303.443 84.1386C303.443 84.2327 303.405 84.3229 303.339 84.3895C303.272 84.456 303.182 84.4934 303.088 84.4934Z" fill="#F2F2F2"/>
<path d="M303.088 92.0599H292.841C292.747 92.0599 292.657 92.0225 292.59 91.9559C292.524 91.8894 292.486 91.7991 292.486 91.705C292.486 91.6109 292.524 91.5207 292.59 91.4541C292.657 91.3876 292.747 91.3502 292.841 91.3502H303.088C303.182 91.3502 303.272 91.3876 303.339 91.4541C303.405 91.5207 303.443 91.6109 303.443 91.705C303.443 91.7991 303.405 91.8894 303.339 91.9559C303.272 92.0225 303.182 92.0599 303.088 92.0599Z" fill="#F2F2F2"/>
<path d="M307.249 88.2791H288.68C288.586 88.2791 288.496 88.2417 288.429 88.1752C288.363 88.1086 288.325 88.0184 288.325 87.9243C288.325 87.8302 288.363 87.7399 288.429 87.6734C288.496 87.6068 288.586 87.5694 288.68 87.5694H307.249C307.343 87.5694 307.433 87.6068 307.5 87.6734C307.566 87.7399 307.604 87.8302 307.604 87.9243C307.604 88.0184 307.566 88.1086 307.5 88.1752C307.433 88.2417 307.343 88.2791 307.249 88.2791Z" fill="#F2F2F2"/>
<path d="M307.439 95.1364H300.73C300.636 95.1364 300.546 95.099 300.48 95.0324C300.413 94.9659 300.376 94.8756 300.376 94.7815C300.376 94.6874 300.413 94.5972 300.48 94.5306C300.546 94.4641 300.636 94.4267 300.73 94.4267H307.439C307.533 94.4267 307.623 94.4641 307.689 94.5306C307.756 94.5972 307.793 94.6874 307.793 94.7815C307.793 94.8756 307.756 94.9659 307.689 95.0324C307.623 95.099 307.533 95.1364 307.439 95.1364Z" fill="#F2F2F2"/>
<path d="M250.043 112.827L249.796 112.704C235.336 105.55 219.694 105.556 201.975 112.724L201.5 111.546C219.471 104.276 235.376 104.242 250.11 111.443C270.845 103.546 284.174 90.1616 289.732 71.6565L290.948 72.0225C285.247 91.0022 271.572 104.698 250.302 112.729L250.043 112.827Z" fill="#F2F2F2"/>
<path d="M310.363 112.827L310.115 112.71C295.903 106.037 280.251 106.043 262.265 112.731L261.822 111.539C280.038 104.767 295.934 104.734 310.404 111.443C333.62 102.16 346.948 88.7985 350.022 71.7269L351.272 71.9521C348.103 89.5467 334.425 103.265 310.619 112.725L310.363 112.827Z" fill="#F2F2F2"/>
<path d="M357.901 112.151L357.744 112.083C346.035 107.045 330.8 107.056 309.803 112.117L309.505 110.882C330.689 105.776 346.134 105.763 358.088 110.848C381.816 107.944 394.752 94.9501 397.627 71.1279L398.888 71.2805C395.924 95.8255 382.573 109.188 358.07 112.13L357.901 112.151Z" fill="#F2F2F2"/>
<path d="M295.689 74.6508C298.493 74.6508 300.767 72.3752 300.767 69.5682C300.767 66.7611 298.493 64.4856 295.689 64.4856C292.884 64.4856 290.61 66.7611 290.61 69.5682C290.61 72.3752 292.884 74.6508 295.689 74.6508Z" fill="#2185D5"/>
<path d="M352.821 74.6508C355.626 74.6508 357.9 72.3752 357.9 69.5682C357.9 66.7611 355.626 64.4856 352.821 64.4856C350.016 64.4856 347.743 66.7611 347.743 69.5682C347.743 72.3752 350.016 74.6508 352.821 74.6508Z" fill="#2185D5"/>
<path d="M398.527 74.0155C401.332 74.0155 403.606 71.7399 403.606 68.9329C403.606 66.1258 401.332 63.8503 398.527 63.8503C395.722 63.8503 393.449 66.1258 393.449 68.9329C393.449 71.7399 395.722 74.0155 398.527 74.0155Z" fill="#2185D5"/>
<path d="M256.96 151.542H203.578C202.193 151.54 200.865 150.989 199.886 150.008C198.906 149.028 198.355 147.699 198.354 146.313V93.539C198.355 92.1527 198.906 90.8237 199.886 89.8434C200.865 88.8632 202.193 88.3118 203.578 88.3103H256.96C258.345 88.3118 259.673 88.8632 260.653 89.8434C261.632 90.8237 262.183 92.1527 262.185 93.539V146.313C262.183 147.699 261.632 149.028 260.653 150.008C259.673 150.989 258.345 151.54 256.96 151.542Z" fill="#E6E6E6"/>
<path d="M248.073 147.094H194.691C193.306 147.093 191.978 146.541 190.998 145.561C190.019 144.581 189.468 143.252 189.466 141.866V89.0917C189.468 87.7054 190.019 86.3764 190.998 85.3961C191.978 84.4159 193.306 83.8645 194.691 83.863H248.073C249.458 83.8645 250.786 84.4159 251.765 85.3961C252.745 86.3764 253.296 87.7054 253.297 89.0917V141.866C253.296 143.252 252.745 144.581 251.765 145.561C250.786 146.541 249.458 147.093 248.073 147.094Z" fill="#E6E6E6"/>
<path d="M204.632 85.4209C201.023 85.4209 197.561 86.8559 195.009 89.4102C192.457 91.9645 191.023 95.4289 191.023 99.0412V140.746C191.023 141.375 191.147 141.998 191.387 142.579C191.628 143.16 191.98 143.688 192.425 144.133C192.869 144.578 193.397 144.931 193.978 145.172C194.559 145.413 195.181 145.536 195.81 145.536H228.451C231.51 145.536 234.538 144.934 237.364 143.762C240.189 142.591 242.757 140.874 244.919 138.71C247.082 136.545 248.797 133.976 249.968 131.148C251.138 128.32 251.741 125.289 251.741 122.228V90.2114C251.741 88.9408 251.236 87.7224 250.339 86.824C249.441 85.9256 248.223 85.4209 246.954 85.4209H204.632Z" fill="white"/>
<path d="M235.679 100.757H206.973C206.709 100.757 206.457 100.653 206.27 100.466C206.084 100.28 205.98 100.027 205.98 99.7633C205.98 99.4996 206.084 99.2468 206.27 99.0604C206.457 98.874 206.709 98.7693 206.973 98.7693H235.679C235.942 98.7693 236.195 98.874 236.381 99.0604C236.568 99.2468 236.672 99.4996 236.672 99.7633C236.672 100.027 236.568 100.28 236.381 100.466C236.195 100.653 235.942 100.757 235.679 100.757Z" fill="#E6E6E6"/>
<path d="M235.679 121.954H206.973C206.842 121.954 206.713 121.929 206.592 121.879C206.471 121.829 206.361 121.756 206.269 121.664C206.176 121.571 206.103 121.462 206.053 121.341C206.003 121.22 205.977 121.091 205.977 120.96C205.977 120.829 206.003 120.7 206.053 120.579C206.103 120.458 206.176 120.349 206.269 120.256C206.361 120.164 206.471 120.091 206.592 120.041C206.713 119.991 206.842 119.966 206.973 119.966H235.679C235.942 119.967 236.194 120.072 236.38 120.258C236.565 120.444 236.67 120.697 236.67 120.96C236.67 121.223 236.565 121.476 236.38 121.662C236.194 121.848 235.942 121.953 235.679 121.954Z" fill="#E6E6E6"/>
<path d="M247.336 111.363H195.316C195.052 111.363 194.8 111.258 194.613 111.071C194.427 110.885 194.323 110.632 194.323 110.369C194.323 110.105 194.427 109.852 194.613 109.666C194.8 109.479 195.052 109.375 195.316 109.375H247.336C247.599 109.375 247.852 109.479 248.038 109.666C248.225 109.852 248.329 110.105 248.329 110.369C248.329 110.632 248.225 110.885 248.038 111.071C247.852 111.258 247.599 111.363 247.336 111.363Z" fill="#E6E6E6"/>
<path d="M247.867 130.573H229.075C228.944 130.573 228.815 130.547 228.695 130.497C228.574 130.447 228.465 130.374 228.372 130.281C228.28 130.189 228.207 130.08 228.157 129.959C228.107 129.838 228.081 129.709 228.081 129.579C228.081 129.448 228.107 129.319 228.157 129.198C228.207 129.078 228.28 128.968 228.372 128.876C228.465 128.783 228.574 128.71 228.695 128.66C228.815 128.61 228.944 128.585 229.075 128.585H247.867C248.131 128.585 248.383 128.689 248.57 128.876C248.756 129.062 248.86 129.315 248.86 129.579C248.86 129.842 248.756 130.095 248.57 130.281C248.383 130.468 248.131 130.573 247.867 130.573Z" fill="#E6E6E6"/>
<path d="M374.802 98.4927H355.746C355.252 98.4922 354.778 98.2954 354.428 97.9454C354.078 97.5955 353.882 97.1211 353.881 96.6263V77.7879C353.882 77.2931 354.078 76.8186 354.428 76.4687C354.778 76.1188 355.252 75.922 355.746 75.9214H374.802C375.296 75.922 375.77 76.1188 376.12 76.4687C376.469 76.8186 376.666 77.2931 376.666 77.7879V96.6263C376.666 97.1211 376.469 97.5955 376.12 97.9454C375.77 98.2954 375.296 98.4922 374.802 98.4927Z" fill="#F2F2F2"/>
<path d="M377.974 100.08H358.918C358.424 100.08 357.95 99.8829 357.6 99.533C357.251 99.1831 357.054 98.7087 357.054 98.2138V79.3754C357.054 78.8806 357.251 78.4062 357.6 78.0563C357.95 77.7063 358.424 77.5095 358.918 77.509H377.974C378.468 77.5095 378.942 77.7063 379.292 78.0563C379.642 78.4062 379.838 78.8806 379.839 79.3754V98.2138C379.838 98.7087 379.642 99.1831 379.292 99.533C378.942 99.8829 378.468 100.08 377.974 100.08Z" fill="#F2F2F2"/>
<path d="M356.145 76.4775C355.692 76.4775 355.258 76.6577 354.937 76.9784C354.617 77.2991 354.437 77.734 354.437 78.1876V96.2266C354.437 96.6801 354.617 97.1151 354.937 97.4358C355.258 97.7565 355.692 97.9366 356.145 97.9366H367.797C370.002 97.9366 372.117 97.06 373.676 95.4997C375.235 93.9393 376.111 91.8231 376.111 89.6164V78.1876C376.111 77.734 375.931 77.2991 375.61 76.9784C375.29 76.6577 374.855 76.4775 374.402 76.4775H356.145Z" fill="white"/>
<path d="M370.377 81.9521H360.13C360.036 81.9521 359.946 81.9147 359.88 81.8482C359.813 81.7816 359.776 81.6914 359.776 81.5973C359.776 81.5032 359.813 81.4129 359.88 81.3464C359.946 81.2798 360.036 81.2424 360.13 81.2424H370.377C370.471 81.2424 370.562 81.2798 370.628 81.3464C370.695 81.4129 370.732 81.5032 370.732 81.5973C370.732 81.6914 370.695 81.7816 370.628 81.8482C370.562 81.9147 370.471 81.9521 370.377 81.9521Z" fill="#F2F2F2"/>
<path d="M370.377 89.5186H360.13C360.036 89.5186 359.946 89.4812 359.88 89.4146C359.813 89.3481 359.776 89.2578 359.776 89.1637C359.776 89.0696 359.813 88.9794 359.88 88.9128C359.946 88.8463 360.036 88.8089 360.13 88.8089H370.377C370.471 88.8089 370.562 88.8463 370.628 88.9128C370.695 88.9794 370.732 89.0696 370.732 89.1637C370.732 89.2578 370.695 89.3481 370.628 89.4146C370.562 89.4812 370.471 89.5186 370.377 89.5186Z" fill="#F2F2F2"/>
<path d="M374.539 85.7378H355.969C355.875 85.7378 355.785 85.7004 355.718 85.6339C355.652 85.5673 355.615 85.4771 355.615 85.383C355.615 85.2889 355.652 85.1986 355.718 85.1321C355.785 85.0655 355.875 85.0281 355.969 85.0281H374.539C374.633 85.0281 374.723 85.0655 374.789 85.1321C374.856 85.1986 374.893 85.2889 374.893 85.383C374.893 85.4771 374.856 85.5673 374.789 85.6339C374.723 85.7004 374.633 85.7378 374.539 85.7378Z" fill="#F2F2F2"/>
<path d="M374.728 92.5951H368.02C367.926 92.5951 367.836 92.5577 367.769 92.4911C367.703 92.4246 367.665 92.3343 367.665 92.2402C367.665 92.1461 367.703 92.0559 367.769 91.9893C367.836 91.9228 367.926 91.8854 368.02 91.8854H374.728C374.822 91.8854 374.912 91.9228 374.979 91.9893C375.045 92.0559 375.083 92.1461 375.083 92.2402C375.083 92.3343 375.045 92.4246 374.979 92.4911C374.912 92.5577 374.822 92.5951 374.728 92.5951Z" fill="#F2F2F2"/>
<path d="M156.359 353.988C156.064 354.002 155.772 353.924 155.522 353.766C155.273 353.608 155.078 353.377 154.964 353.104C154.85 352.831 154.823 352.53 154.885 352.241C154.948 351.952 155.098 351.69 155.315 351.489L155.414 351.096C155.401 351.065 155.388 351.033 155.375 351.002C155.077 350.299 154.579 349.7 153.943 349.28C153.306 348.86 152.56 348.637 151.798 348.64C151.035 348.643 150.291 348.871 149.657 349.296C149.024 349.721 148.53 350.324 148.238 351.029C147.071 353.842 145.585 356.66 145.219 359.635C145.058 360.949 145.126 362.282 145.42 363.574C142.679 357.589 141.256 351.085 141.246 344.501C141.246 342.849 141.338 341.198 141.521 339.556C141.673 338.21 141.883 336.874 142.153 335.547C143.622 328.348 146.776 321.601 151.357 315.859C153.574 314.648 155.367 312.786 156.495 310.524C156.903 309.711 157.192 308.843 157.352 307.947C157.102 307.98 156.409 304.168 156.597 303.934C156.249 303.405 155.625 303.141 155.244 302.625C153.351 300.056 150.743 300.505 149.381 303.995C146.472 305.465 146.444 307.901 148.229 310.245C149.364 311.736 149.52 313.754 150.517 315.35C150.414 315.481 150.308 315.608 150.205 315.74C148.331 318.151 146.698 320.74 145.329 323.471C145.662 320.412 145.265 317.318 144.17 314.443C143.06 311.764 140.98 309.507 139.148 307.191C138.664 306.568 138.006 306.104 137.258 305.856C136.509 305.608 135.704 305.587 134.945 305.797C134.185 306.007 133.504 306.437 132.989 307.034C132.473 307.63 132.146 308.367 132.049 309.15C132.045 309.184 132.041 309.218 132.038 309.252C132.31 309.406 132.576 309.569 132.837 309.741C133.164 309.96 133.418 310.273 133.564 310.638C133.711 311.004 133.744 311.406 133.659 311.79C133.574 312.175 133.374 312.525 133.087 312.794C132.8 313.064 132.438 313.24 132.049 313.3L132.009 313.306C132.106 314.288 132.277 315.26 132.521 316.216C130.171 325.311 135.245 328.623 142.489 328.772C142.649 328.854 142.804 328.936 142.964 329.014C141.589 332.916 140.726 336.979 140.398 341.103C140.212 343.536 140.223 345.98 140.431 348.412L140.418 348.325C139.893 345.622 138.452 343.183 136.339 341.419C133.199 338.838 128.764 337.888 125.377 335.813C125.017 335.582 124.598 335.458 124.17 335.457C123.743 335.456 123.323 335.577 122.962 335.807C122.601 336.037 122.313 336.365 122.132 336.753C121.952 337.141 121.885 337.572 121.941 337.997L121.955 338.087C122.46 338.293 122.952 338.53 123.427 338.797C123.699 338.951 123.966 339.114 124.226 339.286C124.554 339.505 124.807 339.818 124.954 340.184C125.101 340.549 125.134 340.951 125.049 341.335C124.963 341.72 124.764 342.07 124.477 342.339C124.189 342.609 123.828 342.785 123.438 342.845L123.399 342.851C123.37 342.855 123.345 342.86 123.317 342.864C124.179 344.925 125.39 346.823 126.896 348.473C128.365 356.413 134.676 357.166 141.427 354.854H141.431C142.172 358.075 143.245 361.211 144.633 364.21H156.072C156.113 364.083 156.15 363.951 156.187 363.824C155.128 363.891 154.065 363.827 153.022 363.636C153.871 362.593 154.719 361.543 155.568 360.5C155.587 360.481 155.605 360.46 155.622 360.439C156.052 359.905 156.487 359.376 156.917 358.843L156.917 358.842C156.94 357.207 156.752 355.575 156.359 353.988Z" fill="#90EE90"/>
<path d="M3.34533e-06 364.244C-0.000292522 364.343 0.0190397 364.442 0.0569011 364.534C0.0947624 364.626 0.1504 364.709 0.22061 364.779C0.290821 364.85 0.374224 364.905 0.466015 364.943C0.557805 364.981 0.656173 365 0.755463 365H161.545C161.746 365 161.938 364.92 162.08 364.779C162.221 364.637 162.301 364.444 162.301 364.244C162.301 364.043 162.221 363.851 162.08 363.709C161.938 363.568 161.746 363.488 161.545 363.488H0.755463C0.656174 363.488 0.557803 363.507 0.466015 363.545C0.374226 363.583 0.29083 363.638 0.22062 363.709C0.15041 363.779 0.0947733 363.862 0.0569108 363.954C0.0190482 364.046 -0.000289152 364.145 3.34533e-06 364.244Z" fill="#CCCCCC"/>
<path d="M68.866 44.2758L72.6812 44.0789C71.4207 44.2861 70.1411 44.3521 68.866 44.2758Z" fill="#F2F2F2"/>
<path d="M91.5987 59.7397L90.9702 60.5402L89.2816 62.6876L74.7001 81.2455L53.5167 59.5427L54.361 58.8693L58.8554 49.3076L81.9433 47.7193L88.85 58.6215L91.5987 59.7397Z" fill="#3A4750"/>
</g>
<defs>
<clipPath id="clip0_6_5">
<rect width="517.871" height="365" fill="white"/>
</clipPath>
</defs>
</svg>
